<?xml version="1.0" encoding="UTF-8"?>
<svg width="836" height="273.07" version="1.1" viewBox="0 0 783.75 256" xmlns="http://www.w3.org/2000/svg" xmlns:cc="http://creativecommons.org/ns#" xmlns:dc="http://purl.org/dc/elements/1.1/" xmlns:osb="http://www.openswatchbook.org/uri/2009/osb" xmlns:rdf="http://www.w3.org/1999/02/22-rdf-syntax-ns#">
 <metadata>
  <rdf:RDF>
   <cc:Work rdf:about="">
    <dc:format>image/svg+xml</dc:format>
    <dc:type rdf:resource="http://purl.org/dc/dcmitype/StillImage"/>
    <dc:title/>
   </cc:Work>
  </rdf:RDF>
 </metadata>
 <g transform="translate(-425 -61.363)">
  <g transform="translate(-8.3109 28.086)" stroke="#fff" stroke-linecap="round" stroke-linejoin="round">
   <path d="m536.16 115.3c-7.9669-9.9564-16.253-23.893-16.253-23.893s-22.766 12.454-36.049 17.682-43.549 13.182-43.549 13.182 39.278 46.048 56.795 69.664c22.033 29.705 61.79 90.345 61.79 90.345s22.57-14.94 33.24-21.68c11.272-7.1206 35.556-16.031 35.556-16.031s-29.636-36.629-44.614-57.893" fill="none" stroke-width="14"/>
   <path d="m560.63 122.83c14.15-27.919 36.868-49.533 59.55-63.462 30.404-18.671 65.132-22.087 65.132-22.087s-33.775 27.321-46.908 48.224c-13.132 20.902-12.122 24.995-22.275 36.483s-25.666 13.506-41.834 14.79-22.164 7.756-22.626 12.21c-0.44853 4.3281 3.5652 10.604 17.724 10.092 12.348-0.4467 33.318-5.3805 33.318-5.3805s-6.3698 5.8077-14.981 8.8032-19.026 3.532-29.707 2.8462-15.079 3.5588-17.782 8.9893c-2.8785 5.7835-6.9267 16.344-6.9267 16.344s8.0285-29.798 27.316-67.852z" fill="#fff" fill-rule="evenodd" stroke-width="8"/>
  </g>
  <text x="748.20312" y="228.54701" fill="#000000" font-family="Roboto" font-size="125px" font-weight="500" letter-spacing="0px" stroke-width=".9375px" word-spacing="0px" style="font-feature-settings:normal;font-variant-caps:normal;font-variant-ligatures:normal;font-variant-numeric:normal;line-height:125%" xml:space="preserve"><tspan x="748.20312" y="228.54701" fill="#ffffff" font-family="Roboto" font-size="125px" font-weight="500" stroke-width=".9375px" style="font-feature-settings:normal;font-variant-caps:normal;font-variant-ligatures:normal;font-variant-numeric:normal">QuizPad</tspan></text>
 </g>
</svg>
